<svg xmlns="http://www.w3.org/2000/svg" x="0px" y="0px"
width="100" height="100"
viewBox="0 0 64 64"
style=" fill:#000000;"><linearGradient id="oAnU0CEXM9PVrlK3Rl1XAa_79035_gr1" x1="32" x2="32" y1="6" y2="58" gradientUnits="userSpaceOnUse" spreadMethod="reflect"><stop offset="0" stop-color="#1a6dff"></stop><stop offset="1" stop-color="#c822ff"></stop></linearGradient><path fill="url(#oAnU0CEXM9PVrlK3Rl1XAa_79035_gr1)" d="M46.4,28.97c-0.44-0.24-1.12-0.51-1.73-0.75l-0.24-0.09c-0.03-0.02-0.06-0.02-0.09-0.03 c1.22-3.15,4.14-10.81,5.08-13.67c0.34-1.04,0.71-2.57,0.54-3.93C49.68,8.31,48.33,7,46.34,7c-1.52,0-2.86,0.98-3.5,1.77 c-0.9,0.98-1.41,2.16-1.87,3.33c-1.92,4.23-3.43,7.94-4.62,11.35c-0.18,0.52-0.61,1.76-0.92,2.68c-0.18-0.02-0.37-0.03-0.55-0.04 c-0.61-1.54-5.67-14.37-6.65-16.59C28.07,9.14,26.61,6,23.85,6c-1.66,0-3.12,1.04-3.62,2.56c-0.36,1.02-0.23,2.65-0.03,3.48 c0.73,2.99,5.38,14.16,6.48,16.8c-0.13,0.23-0.23,0.48-0.28,0.74c-0.58-0.58-1.09-0.96-1.57-1.19c-1.81-0.82-4.14-0.26-5.61,1.25 C18.42,30.48,18,31.6,18,32.87c0,1.41,0.29,2.38,0.67,3.15c-0.78,0.05-1.54,0.25-2.12,0.59c-3.63,2.16-2.51,8.52-1.89,10.01 c1.47,3.96,3.31,6.34,6.34,8.19c3.39,2.15,6.56,3.19,9.68,3.19c1.99,0,4.28-0.36,6.11-0.95c5.59-1.79,9.47-5.86,11.85-12.43 c1-2.69,1.36-6.06,1.36-8.31C50,32.8,48.79,30.33,46.4,28.97z M38.24,24.11c1.17-3.35,2.66-7.01,4.57-11.23 c0.41-1.04,0.83-2.03,1.54-2.8C44.79,9.54,45.61,9,46.34,9c0.42,0,1.41,0,1.63,1.75c0.1,0.76-0.07,1.88-0.45,3.06 c-1,3.02-3.99,10.84-5.09,13.67c-1.69-0.5-3.33-0.87-4.97-1.11C37.75,25.53,38.08,24.56,38.24,24.11z M22.14,11.57 c-0.16-0.65-0.2-1.84-0.02-2.36C22.36,8.49,23.05,8,23.85,8c1.22,0,2.2,1.51,2.55,2.31c0.86,1.93,5.01,12.45,6.29,15.7 c-0.11,0-0.22-0.01-0.33-0.01c-0.68,0-2.27,0.16-3.43,0.76c-0.19,0.1-0.45,0.26-0.75,0.48C26.69,23.66,22.77,14.14,22.14,11.57z M20.67,31.03c0.88-0.92,2.34-1.27,3.32-0.83c0.48,0.23,1.2,0.93,2.12,2.05c1.47,1.87,2.76,4.07,3.95,6.78 c0.85,2.24,0.94,3.06,0.94,3.3c0,1.23-0.99,1.67-1.84,1.67c-0.94,0-2.19-1.22-2.95-1.96l-1.26-1.25c-0.85-0.99-1.74-1.97-2.4-2.71 l-0.23-0.26c-0.35-0.47-1.23-1.65-1.51-2.08C20.4,35.11,20,34.36,20,32.87C20,32.35,20.12,31.6,20.67,31.03z M30.86,36.04 c0.7,0.31,1.45,0.56,2.21,0.73c1.02,0.21,2.59,0.28,4.13,0.3c-1.5,0.95-3.06,2.28-4.36,4.13c-0.17-0.75-0.46-1.69-0.91-2.88 l-0.05-0.13C31.55,37.44,31.2,36.72,30.86,36.04z M46.76,43.93c-2.16,5.96-5.62,9.63-10.58,11.21c-1.63,0.53-3.73,0.86-5.5,0.86 c-2.73,0-5.55-0.94-8.63-2.88c-2.61-1.61-4.21-3.69-5.53-7.23c-0.58-1.39-1.11-6.27,1.05-7.56C17.92,38.13,18.47,38,19,38 c0.39,0,1.05,0.28,1.5,0.79l0.56,0.63c1.18,1.3,3.36,3.74,4.34,5.12c0.73,1.03,0.71,2.68,0.38,3.09c-0.24,0.3-0.74,0.37-1.12,0.37 c-0.58,0-1.01-0.23-1.47-0.57c-0.56-0.43-2.32-2.62-3.39-4.03c-0.33-0.44-0.96-0.53-1.4-0.2c-0.44,0.33-0.53,0.96-0.2,1.4 c0.46,0.61,2.79,3.67,3.79,4.42C22.6,49.48,23.45,50,24.66,50c1.17,0,2.11-0.39,2.69-1.13c0.58-0.73,0.75-1.92,0.58-3.11 c0.4,0.15,0.81,0.24,1.23,0.24c0.75,0,1.42-0.19,2-0.5c-0.25,2.32,0.17,4.9,1.03,6.09c0.32,0.44,0.95,0.55,1.4,0.22 c0.44-0.32,0.54-0.95,0.22-1.4c-0.8-1.1-1.13-5.01-0.06-6.92c1.87-3.35,4.74-5.07,6.76-5.89c0.32-0.11,0.59-0.21,0.87-0.31 c0.27-0.11,0.56-0.21,0.94-0.34c0.52-0.18,0.8-0.74,0.63-1.26c-0.24-0.72-0.81-0.7-1.59-0.68c-1.48,0.05-5.98,0.18-7.88-0.19 c-1.64-0.37-2.75-1.06-3.16-1.35c-1.44-0.99-2.09-2.06-1.99-3.37c0-0.39,0.87-1.23,1.53-1.57c0.7-0.36,1.89-0.53,2.5-0.53 c3.92,0,7.43,0.62,11.37,2l0.22,0.08c0.36,0.14,1.12,0.44,1.46,0.63C48,32.18,48,35.29,48,36.31C48,38.39,47.68,41.48,46.76,43.93z"></path><linearGradient id="oAnU0CEXM9PVrlK3Rl1XAb_79035_gr2" x1="34.03" x2="34.03" y1="36.04" y2="41.2" gradientUnits="userSpaceOnUse" spreadMethod="reflect"><stop offset="0" stop-color="#6dc7ff"></stop><stop offset="1" stop-color="#e6abff"></stop></linearGradient><path fill="url(#oAnU0CEXM9PVrlK3Rl1XAb_79035_gr2)" d="M37.2,37.07c-1.5,0.95-3.06,2.28-4.36,4.13c-0.17-0.75-0.46-1.69-0.91-2.88l-0.05-0.13 c-0.33-0.75-0.68-1.47-1.02-2.15c0.7,0.31,1.45,0.56,2.21,0.73C34.09,36.98,35.66,37.05,37.2,37.07z"></path></svg>