<svg xmlns="http://www.w3.org/2000/svg" x="0px" y="0px" width="100" height="100" viewBox="0 0 100 100">
<path fill="#6666a4" d="M19.681,27.103C19.534,22.887,22.818,19,27.258,19h45.49c4.439,0,7.724,3.887,7.577,8.103 c-0.141,4.049,0.042,9.295,1.362,13.572c1.324,4.29,3.558,7.002,7.215,7.35v3.951c-3.658,0.348-5.891,3.06-7.215,7.35 c-1.32,4.277-1.503,9.522-1.362,13.572C80.471,77.113,77.187,81,72.748,81h-45.49c-4.439,0-7.724-3.887-7.577-8.102 c0.141-4.049-0.042-9.295-1.362-13.572c-1.324-4.29-3.563-7.002-7.221-7.35v-3.951c3.658-0.348,5.896-3.06,7.221-7.35 C19.639,36.397,19.822,31.152,19.681,27.103z"></path><path fill="#1f212b" d="M72.748,82h-45.49c-2.291,0-4.441-0.921-6.056-2.593c-1.687-1.745-2.604-4.13-2.521-6.545 c0.128-3.676,0.004-8.957-1.318-13.241c-1.294-4.19-3.374-6.365-6.36-6.65c-0.514-0.049-0.905-0.479-0.905-0.995v-3.951 c0-0.516,0.392-0.946,0.905-0.995c2.986-0.285,5.066-2.46,6.36-6.65c1.322-4.284,1.446-9.565,1.318-13.241l0,0 c-0.084-2.415,0.834-4.8,2.521-6.545C22.816,18.921,24.967,18,27.258,18h45.49c2.291,0,4.442,0.921,6.057,2.593 c1.686,1.745,2.604,4.131,2.519,6.545c-0.127,3.677-0.002,8.959,1.318,13.241c1.294,4.19,3.373,6.366,6.355,6.65 c0.514,0.049,0.905,0.479,0.905,0.995v3.951c0,0.516-0.392,0.946-0.905,0.995c-2.982,0.284-5.062,2.46-6.355,6.65 c-1.32,4.282-1.445,9.564-1.318,13.241c0.085,2.414-0.833,4.8-2.519,6.545C77.19,81.079,75.039,82,72.748,82z M12.098,51.114 c3.353,0.683,5.764,3.341,7.176,7.917c1.405,4.551,1.541,10.071,1.406,13.901c-0.064,1.875,0.649,3.729,1.961,5.086 C23.875,79.296,25.515,80,27.258,80h45.49c1.743,0,3.384-0.704,4.618-1.982c1.311-1.356,2.024-3.211,1.959-5.085 c-0.134-3.831,0.003-9.353,1.406-13.901c1.412-4.576,3.822-7.234,7.171-7.917v-2.229c-3.349-0.683-5.759-3.341-7.171-7.917 c-1.403-4.549-1.54-10.07-1.406-13.901c0.065-1.874-0.648-3.729-1.959-5.085C76.132,20.704,74.491,20,72.748,20h-45.49 c-1.743,0-3.383,0.704-4.617,1.981c-1.312,1.357-2.025,3.211-1.961,5.086c0.135,3.83-0.001,9.351-1.406,13.901 c-1.412,4.576-3.823,7.234-7.176,7.917V51.114z"></path><path fill="#6666a4" d="M27.258,77c-1.182,0-1.99-0.58-2.46-1.065c-0.748-0.775-1.156-1.832-1.119-2.898 c0.142-4.06-0.01-9.939-1.538-14.89c-1.277-4.138-3.21-6.649-5.273-8.146c2.063-1.497,3.996-4.01,5.273-8.146 c1.528-4.95,1.68-10.83,1.538-14.891c-0.037-1.065,0.371-2.122,1.119-2.897C25.268,23.58,26.076,23,27.258,23h45.49 c1.183,0,1.99,0.58,2.46,1.066c0.748,0.774,1.156,1.83,1.118,2.896"></path><path fill="#1f212b" d="M27.258,77.5c-1.356,0-2.281-0.662-2.819-1.218c-0.843-0.873-1.301-2.063-1.26-3.264 c0.141-4.022-0.009-9.843-1.516-14.725c-1.108-3.589-2.82-6.243-5.09-7.89c-0.129-0.094-0.206-0.244-0.206-0.404 s0.077-0.311,0.206-0.404c2.27-1.646,3.981-4.301,5.09-7.89c1.507-4.882,1.656-10.702,1.516-14.726 c-0.042-1.2,0.417-2.39,1.26-3.262c0.538-0.557,1.463-1.219,2.819-1.219h45.49c1.357,0,2.282,0.663,2.819,1.219 c0.843,0.872,1.302,2.062,1.259,3.262c-0.01,0.276-0.223,0.504-0.518,0.482c-0.276-0.01-0.492-0.242-0.482-0.518 c0.033-0.931-0.323-1.854-0.978-2.531c-0.403-0.417-1.094-0.914-2.101-0.914h-45.49c-1.006,0-1.697,0.496-2.101,0.913 c-0.654,0.678-1.012,1.602-0.979,2.532c0.143,4.101-0.012,10.04-1.561,15.056c-1.088,3.523-2.745,6.211-4.933,7.999 c2.188,1.788,3.845,4.476,4.933,7.999c1.549,5.016,1.703,10.955,1.561,15.055c-0.033,0.932,0.324,1.855,0.979,2.534 c0.403,0.416,1.095,0.912,2.101,0.912c0.276,0,0.5,0.224,0.5,0.5S27.534,77.5,27.258,77.5z"></path><path fill="#1f212b" d="M37.25,77.5h-4.125c-0.276,0-0.5-0.224-0.5-0.5s0.224-0.5,0.5-0.5h4.125c0.276,0,0.5,0.224,0.5,0.5 S37.526,77.5,37.25,77.5z"></path><g><path fill="#6666a4" d="M77.864,41.854c1.277,4.137,3.21,6.649,5.271,8.146c-2.062,1.497-3.994,4.01-5.271,8.146 c-1.526,4.948-1.679,10.828-1.538,14.89c0.038,1.067-0.37,2.123-1.118,2.897C74.738,76.42,73.931,77,72.748,77H39.875"></path><path fill="#1f212b" d="M72.748,77.5H39.875c-0.276,0-0.5-0.224-0.5-0.5s0.224-0.5,0.5-0.5h32.873 c1.007,0,1.697-0.497,2.101-0.914c0.654-0.678,1.011-1.601,0.978-2.532c-0.142-4.101,0.014-10.041,1.561-15.055 c1.088-3.523,2.745-6.21,4.931-7.999c-2.186-1.789-3.843-4.476-4.931-7.999c-0.082-0.264,0.066-0.544,0.33-0.625 c0.263-0.085,0.544,0.066,0.625,0.33c1.108,3.588,2.82,6.242,5.088,7.89c0.129,0.094,0.206,0.244,0.206,0.404 s-0.077,0.311-0.206,0.404c-2.268,1.647-3.979,4.302-5.088,7.89c-1.505,4.881-1.655,10.701-1.516,14.725 c0.043,1.201-0.416,2.391-1.259,3.263C75.03,76.837,74.105,77.5,72.748,77.5z"></path></g><g><path fill="#fff" d="M55.603,49.023v-0.051c3.379-0.584,6.016-3.751,6.016-7.24c0-2.466-0.948-4.555-2.743-6.04 c-1.788-1.48-4.299-2.263-7.259-2.263H38.056v33.127h13.631c3.542,0,6.482-0.865,8.502-2.502c2.023-1.639,3.092-4.024,3.092-6.898 C63.282,52.816,60.199,49.555,55.603,49.023z M49.253,47.461h-5.8v-9.697h6.901c3.786,0,5.87,1.661,5.87,4.677 C56.223,45.678,53.748,47.461,49.253,47.461z M43.452,51.521h6.854c4.952,0,7.462,1.789,7.462,5.317 c0,3.523-2.475,5.386-7.158,5.386h-7.158V51.521z"></path><path fill="#1f212b" d="M51.688,67.057H38.056c-0.276,0-0.5-0.224-0.5-0.5V33.43c0-0.276,0.224-0.5,0.5-0.5h13.562 c3.079,0,5.699,0.822,7.578,2.378c1.912,1.583,2.924,3.805,2.924,6.425c0,3.063-1.923,5.911-4.621,7.164 c3.825,1.128,6.283,4.269,6.283,8.261c0,3.029-1.133,5.549-3.277,7.286C58.395,66.153,55.346,67.057,51.688,67.057z M38.556,66.057 h13.132c3.427,0,6.258-0.826,8.188-2.391c1.901-1.54,2.906-3.791,2.906-6.509c0-4.067-2.908-7.137-7.236-7.638 c-0.252-0.029-0.442-0.243-0.442-0.497v-0.05c0-0.243,0.175-0.451,0.415-0.493c3.141-0.542,5.602-3.506,5.602-6.747 c0-2.313-0.886-4.268-2.562-5.655c-1.697-1.404-4.098-2.147-6.94-2.147H38.556V66.057z M50.61,62.724h-7.158 c-0.276,0-0.5-0.224-0.5-0.5V51.521c0-0.276,0.224-0.5,0.5-0.5h6.854c6.581,0,7.963,3.163,7.963,5.817 C58.269,60.634,55.549,62.724,50.61,62.724z M43.952,61.724h6.658c4.418,0,6.658-1.644,6.658-4.886 c0-3.241-2.277-4.817-6.963-4.817h-6.354V61.724z M49.253,47.961h-5.801c-0.276,0-0.5-0.224-0.5-0.5v-9.697 c0-0.276,0.224-0.5,0.5-0.5h6.901c4.048,0,6.37,1.887,6.37,5.177C56.724,45.949,54.001,47.961,49.253,47.961z M43.952,46.961h5.301 c2.952,0,6.471-0.784,6.471-4.521c0-3.452-2.92-4.177-5.37-4.177h-6.401V46.961z"></path></g>
</svg>
