<svg xmlns="http://www.w3.org/2000/svg" x="0px" y="0px" width="100" height="100" viewBox="0 0 64 64">
<path fill="#ed7899" d="M38.25,3C55,4,59,5,57,19S35.902,54.35,14,58c0,0-14.972,3-9.986-27L38.25,3z"></path><path fill="#f98cb3" d="M3 31L3 45 8.922 36.721zM8.922 37.061L14 57 22.312 34.312zM23 34L42 42 36 22zM33 4L40 9 46 3 33 3zM37 22L40 9 58 15z"></path><path fill="#ed7899" d="M41.638,43.89C42.855,42.531,56.046,27.677,57,21l-1,35l-33,1l18.437-12.932 C41.512,44.016,41.577,43.958,41.638,43.89z"></path><path fill="#e0678f" d="M43 43L55.5 55.5 21 58z"></path><path fill="#ed7899" d="M4.541,28.096l4.347-7.608c0.176-0.309,0.393-0.593,0.645-0.844l9.985-9.985 c0.304-0.304,0.655-0.557,1.04-0.749l9.38-4.69c1.284-0.642,2.813-0.547,4.008,0.249l4.067,2.711 c1.501,1.001,2.147,2.882,1.576,4.593l-3.149,9.447c-0.222,0.665-0.614,1.259-1.137,1.725L23.059,33.828 c-0.509,0.452-1.125,0.767-1.79,0.915l-10.003,2.223c-1.49,0.331-3.038-0.214-3.991-1.406l-2.384-2.98 C3.865,31.298,3.727,29.521,4.541,28.096z"></path><path fill="#8d6c9f" d="M38.192,25.812c-0.156-0.53-0.713-0.835-1.241-0.678c-0.53,0.155-0.833,0.711-0.678,1.241 l0.744,2.539c0.128,0.436,0.526,0.719,0.959,0.719c0.093,0,0.188-0.013,0.282-0.041c0.53-0.155,0.833-0.711,0.678-1.241 L38.192,25.812z"></path><path fill="#8d6c9f" d="M58.815,11.967c-0.043-0.366-0.095-0.727-0.165-1.077c-0.01,0-0.01-0.01,0-0.02 c-0.21-1.01-0.52-1.95-0.93-2.81c-0.5-1.04-1.15-1.98-1.96-2.79c-2.13-2.13-5.11-3.21-8.86-3.21c-0.25,0-13.16,0-13.16,0 c-1.13,0-2.25,0.28-3.25,0.8c0,0-0.82,0.38-1,0.47l-9.38,4.69c-0.48,0.24-0.92,0.55-1.3,0.93l-9.98,9.99 c-0.32,0.31-0.59,0.67-0.81,1.05l-4.99,8.82c-0.65,1.09-1,2.33-1,3.6l0.068,13.503c-0.048,0.832-0.05,1.639,0.012,2.417 c0.03,0.41,0.08,0.82,0.13,1.22c0.17,1.07,0.45,2.06,0.83,2.98c0.12,0.28,0.25,0.55,0.39,0.82c0.47,0.9,1.06,1.72,1.78,2.44 c0.264,0.264,0.541,0.511,0.83,0.742c0.169,0.135,0.351,0.252,0.528,0.376c0.126,0.088,0.245,0.184,0.375,0.266 c0.257,0.163,0.528,0.307,0.802,0.448c0.059,0.03,0.114,0.067,0.174,0.096c0.32,0.157,0.653,0.297,0.995,0.425 c0.018,0.007,0.035,0.016,0.054,0.023c1.45,0.535,3.098,0.811,4.931,0.827h0c0.009,0.001,0.016,0.005,0.025,0.005 C13.97,59,13.985,59,14,59c0.007,0,0.012-0.003,0.019-0.003c0.028,0,0.053,0.003,0.081,0.003c0.37,0,0.74-0.01,1.11-0.04 c0.46-0.02,0.92-0.06,1.39-0.11c0,0,0.01,0,0.02,0l38.88-1.94c1.04-0.05,1.86-0.88,1.9-1.92l1.49-38.7 c0.01-0.07,0.08-1.97,0.08-2.14C58.97,13.392,58.908,12.67,58.815,11.967z M43.67,4.06l-0.3,0.33l-3.31,3.543 c-0.371-0.616-0.865-1.165-1.49-1.583l-0.66-0.44l-2.02-1.34h-0.01l-0.76-0.51H43.67z M5.18,29.11c0.05-0.18,0.13-0.35,0.23-0.52 l4.35-7.61c0.13-0.23,0.29-0.44,0.48-0.63l9.98-9.98c0.23-0.23,0.5-0.42,0.78-0.57l9.38-4.69c0.15-0.07,0.3-0.13,0.46-0.18 c0.29-0.09,0.59-0.13,0.88-0.13c0.59,0,1.17,0.17,1.67,0.5l0.36,0.24l1.93,1.29l1.78,1.18c1.12,0.75,1.61,2.17,1.18,3.45 l-3.15,9.44c-0.17,0.5-0.46,0.95-0.85,1.3L22.39,33.08c-0.38,0.34-0.84,0.58-1.34,0.69l-10,2.22c-1.13,0.25-2.27-0.16-2.99-1.05 l-0.58-0.73l-1.33-1.66l-0.01-0.01l-0.47-0.59c-0.44-0.54-0.66-1.2-0.66-1.87C5.01,29.75,5.06,29.43,5.18,29.11z M10.267,56.472 c-0.084-0.025-0.17-0.048-0.252-0.075c-0.176-0.058-0.345-0.124-0.514-0.19c-0.118-0.047-0.237-0.093-0.352-0.144 c-0.145-0.064-0.286-0.132-0.425-0.202c-0.134-0.068-0.264-0.139-0.393-0.213c-0.117-0.067-0.234-0.135-0.347-0.207 c-0.151-0.097-0.296-0.201-0.439-0.306c-0.085-0.062-0.172-0.122-0.255-0.187c-0.223-0.178-0.438-0.366-0.641-0.567 C4.57,52.29,3.73,49.21,4,45.55l3.53-5.3c0.31-0.46,0.19-1.08-0.27-1.38c-0.46-0.31-1.08-0.19-1.39,0.27l-0.92,1.37v0.02L4.03,41.9 v-8.81c0.02,0.04,0.05,0.07,0.08,0.11l1.07,1.33l1.31,1.65c0.01,0.02,0.03,0.04,0.04,0.05c0.416,0.506,0.914,0.908,1.46,1.209 c-0.003,0.09,4.719,19.494,4.719,19.494C11.833,56.856,11.021,56.699,10.267,56.472z M16.25,56.87l-0.16,0.01 c-0.085,0.009-0.162,0.015-0.244,0.023c-0.062,0.005-0.126,0.011-0.187,0.015c-0.079,0.008-0.156,0.012-0.235,0.019l4.04-11.741 c0.18-0.522-0.098-1.091-0.621-1.271c-0.522-0.181-1.092,0.098-1.271,0.621l-3.41,9.911l-4.019-16.41 c0.079,0.004,0.157,0.013,0.237,0.013c0.37,0,0.74-0.04,1.1-0.12l10.01-2.22c0.218-0.05,0.431-0.115,0.64-0.192l19.355,7.186 c0.048,0.018,0.099,0.016,0.148,0.027C33.417,50.776,23.95,56.029,16.25,56.87z M55.4,54.91l-30.12,1.51 c6.12-2.59,12.56-7.03,18.32-12.79c6.02-6.02,10.45-12.65,12.96-18.82L55.4,54.91z M56.87,16.77 c-0.984,7.291-6.025,16.545-14.067,24.797c-0.005-0.024-0.004-0.048-0.011-0.072l-2.549-8.69c-0.156-0.53-0.712-0.837-1.241-0.678 c-0.53,0.155-0.834,0.711-0.678,1.241l1.988,6.778l-16.12-5.985L35.97,23.69c0.182-0.162,0.348-0.34,0.503-0.526l20.401-6.74 c0.004,0.027,0,0.059,0.005,0.085L56.87,16.77z M37.684,20.658l2.856-8.568c0.229-0.686,0.284-1.393,0.213-2.082l5.407,1.912 c0.11,0.04,0.22,0.06,0.33,0.06c0.41,0,0.8-0.26,0.95-0.67c0.18-0.52-0.09-1.09-0.61-1.27l-4.51-1.6l4.07-4.37 c0.17-0.01,0.34-0.01,0.51-0.01c3.2,0,5.7,0.88,7.45,2.62c0.23,0.23,0.44,0.47,0.64,0.73c1.331,1.718,1.989,4.065,1.969,6.881 L37.684,20.658z"></path><path fill="#8d6c9f" d="M53.15 12.274l-2.447-.867c-.52-.184-1.092.088-1.277.609-.184.521.088 1.092.609 1.277l2.447.867c.11.039.223.058.334.058.412 0 .797-.256.943-.667C53.943 13.031 53.67 12.459 53.15 12.274zM51.561 54.475c.256 0 .512-.098.707-.293l1.415-1.415c.391-.391.391-1.023 0-1.414s-1.023-.391-1.414 0l-1.415 1.415c-.391.391-.391 1.023 0 1.414C51.049 54.377 51.305 54.475 51.561 54.475zM48.025 50.939c.256 0 .512-.098.707-.293l1.415-1.415c.391-.391.391-1.023 0-1.414s-1.023-.391-1.414 0l-1.415 1.415c-.391.391-.391 1.023 0 1.414C47.513 50.842 47.769 50.939 48.025 50.939zM43.783 47.111c.195.195.451.293.707.293s.512-.098.707-.293l1.414-1.414c.391-.391.391-1.023 0-1.414s-1.023-.391-1.414 0l-1.414 1.414C43.392 46.087 43.392 46.72 43.783 47.111z"></path>
</svg>
