<svg xmlns="http://www.w3.org/2000/svg" x="0px" y="0px"
width="48" height="48"
viewBox="0 0 64 64"
style=" fill:#000000;"><path fill="#becde8" d="M60.79,35.5L51.93,8l-0.75-2.33C50.66,4.07,49.2,3,47.53,3H16.42c-1.66,0-3.12,1.07-3.64,2.67 L12.03,8L3.17,35.5c-0.52,1.6,0.04,3.33,1.39,4.32l25.17,18.44C30.4,58.75,31.19,59,31.98,59c0.79,0,1.58-0.25,2.25-0.74 L59.4,39.82C60.74,38.83,61.3,37.1,60.79,35.5z"></path><path fill="#cbd9ed" d="M49.487,8H14.473c-1.207,0-2.064-1.176-1.694-2.325L12.78,5.67C13.3,4.07,14.76,3,16.42,3h31.11 c1.67,0,3.13,1.07,3.65,2.67l0.002,0.005C51.551,6.824,50.694,8,49.487,8z"></path><path fill="#fff7f0" d="M31.979,44.827c-7.509,0-9.948-5.009-10.675-7.333c-0.181-0.577,0.252-1.159,0.852-1.159h5.844 c0.273,0,0.53,0.121,0.694,0.34c0.413,0.55,1.404,1.576,3.058,1.576c2.26,0,3.955-2.011,3.955-3.927 c0-1.916-1.592-3.841-4.16-3.841c-1.784,0-2.8,1.2-3.254,1.933c-0.203,0.326-0.593,0.475-0.962,0.381l-4.595-1.178 c-0.448-0.114-0.734-0.556-0.658-1.016l2.463-14.854C24.615,15.317,24.985,15,25.42,15h14.103c0.491,0,0.889,0.402,0.889,0.896 v4.291c0,0.495-0.398,0.896-0.889,0.896h-8.723c-0.309,0-0.572,0.23-0.615,0.539l-0.357,2.525 c-0.078,0.659,0.549,1.149,1.176,0.948c0.589-0.189,1.357-0.347,2.282-0.347c3.749,0,9.558,1.954,9.558,9.1 S36.98,44.827,31.979,44.827z"></path><path fill="#8d6c9f" d="M61.742,35.195L52.129,5.363C51.482,3.352,49.635,2,47.533,2H16.425 c-2.099,0-3.946,1.351-4.598,3.363L2.215,35.195c-0.645,2.006,0.059,4.189,1.753,5.435l25.168,18.44 c0.833,0.608,1.816,0.93,2.841,0.93c1.027,0,2.01-0.322,2.844-0.933L59.99,40.629C61.684,39.385,62.388,37.201,61.742,35.195z M58.807,39.017L33.64,57.454c-0.976,0.714-2.347,0.714-3.323,0L5.152,39.018c-0.999-0.734-1.414-2.023-1.033-3.209l9.611-29.83 C14.113,4.795,15.196,4,16.425,4h31.108c1.23,0,2.312,0.794,2.693,1.977l9.613,29.832C60.22,36.993,59.805,38.283,58.807,39.017z"></path><path fill="#8d6c9f" d="M33.287 23.749c-.873 0-1.72.125-2.446.391l.291-2.057h8.392c1.042 0 1.889-.851 1.889-1.896v-4.292c0-1.045-.847-1.896-1.889-1.896H25.42c-.926 0-1.71.665-1.864 1.584l-2.463 14.854c-.16.964.454 1.908 1.396 2.148l4.598 1.179c.8.204 1.626-.127 2.058-.823.413-.666 1.165-1.46 2.404-1.46 1.978 0 3.16 1.444 3.16 2.841 0 1.382-1.264 2.927-2.955 2.927-1.197 0-1.929-.737-2.258-1.176-.347-.464-.906-.74-1.494-.74h-5.845c-.6 0-1.17.289-1.526.772-.36.49-.462 1.104-.281 1.686.756 2.415 3.402 8.034 11.629 8.034 5.833 0 11.866-4.48 11.866-11.978C43.845 25.876 37.208 23.749 33.287 23.749zM31.979 43.826c-6.529 0-8.859-4.002-9.676-6.492h5.638c.482.622 1.737 1.916 3.812 1.916 2.92 0 4.955-2.597 4.955-4.927 0-2.38-1.93-4.841-5.16-4.841-2.207 0-3.471 1.42-4.052 2.324l-4.416-1.133L25.514 16h13.898v4.083h-8.611c-.806 0-1.496.604-1.604 1.399l-.36 2.547c-.077.642.174 1.269.669 1.677.504.416 1.178.546 1.804.342.621-.198 1.286-.299 1.977-.299.876 0 8.558.228 8.558 8.1C41.845 40.73 36.076 43.826 31.979 43.826zM17 6c-.552 0-1 .447-1 1v2c0 .553.448 1 1 1s1-.447 1-1V7C18 6.447 17.552 6 17 6zM22 10c.552 0 1-.447 1-1V7c0-.553-.448-1-1-1s-1 .447-1 1v2C21 9.553 21.448 10 22 10zM27 10c.552 0 1-.447 1-1V7c0-.553-.448-1-1-1s-1 .447-1 1v2C26 9.553 26.448 10 27 10zM32 10c.552 0 1-.447 1-1V7c0-.553-.448-1-1-1s-1 .447-1 1v2C31 9.553 31.448 10 32 10zM37 10c.552 0 1-.447 1-1V7c0-.553-.448-1-1-1s-1 .447-1 1v2C36 9.553 36.448 10 37 10zM42 10c.552 0 1-.447 1-1V7c0-.553-.448-1-1-1s-1 .447-1 1v2C41 9.553 41.448 10 42 10zM47 6c-.552 0-1 .447-1 1v2c0 .553.448 1 1 1s1-.447 1-1V7C48 6.447 47.552 6 47 6z"></path></svg>